<svg xmlns="http://www.w3.org/2000/svg" viewBox="0 0 880 340" width="880" height="340" role="img" aria-labelledby="malTitle" font-family="system-ui,-apple-system,'Segoe UI',Roboto,'Helvetica Neue',sans-serif">
  <title id="malTitle">메타-에이전트 핵심 루프: 검증된 패턴 씨앗에서 기반 아카이브로, 선택(QD)·변이(LLM)·평가를 거쳐 다시 아카이브로 보존되며 도는 진화 루프, 그리고 수렴 후 Pareto 엘리트 지도 산출</title>
  <defs>
    <marker id="ahMal" viewBox="0 0 10 10" refX="8.5" refY="5" markerWidth="7" markerHeight="7" orient="auto-start-reverse">
      <path d="M0 0 10 5 0 10z" fill="#9aa0a6"/>
    </marker>
  </defs>
  <rect x="2" y="2" width="876" height="336" rx="14" fill="#f8f9fb" stroke="#e6e8eb"/>
  <g fill="none" stroke="#9aa0a6" stroke-width="2" marker-end="url(#ahMal)">
    <path d="M140 178 H184"/>
    <path d="M308 178 H352"/>
    <path d="M460 178 H496"/>
    <path d="M650 178 H690"/>
    <path d="M754 152 V64 H248 V148"/>
    <path d="M248 204 V254"/>
  </g>
  <g font-size="11.5" fill="#5f6368">
    <text x="501" y="56" text-anchor="middle">보존 · 점수 + 행동특성</text>
    <text x="262" y="236">수렴 후 산출</text>
    <text x="754" y="228" text-anchor="middle">닫힌검증 → judge → A/B</text>
  </g>
  <g font-size="14" font-weight="500" fill="#1e1e1e" text-anchor="middle">
    <rect x="20" y="152" width="120" height="52" rx="9" fill="#CDF4D3" stroke="#66D575"/>
    <text x="80" y="183">검증된 패턴 씨앗</text>
    <rect x="188" y="152" width="120" height="52" rx="9" fill="#C2E5FF" stroke="#3DADFF"/>
    <text x="248" y="183">기반 아카이브</text>
    <rect x="356" y="152" width="104" height="52" rx="9" fill="#EDEEF0" stroke="#B3B3B3"/>
    <text x="408" y="183">선택 · QD</text>
    <rect x="500" y="152" width="150" height="52" rx="9" fill="#EDEEF0" stroke="#B3B3B3"/>
    <text x="575" y="183">변이 · LLM 코드 작성</text>
    <rect x="694" y="152" width="120" height="52" rx="9" fill="#FFCDC2" stroke="#FF7556"/>
    <text x="754" y="183">평가</text>
    <rect x="188" y="258" width="140" height="50" rx="9" fill="#DCCCFF" stroke="#874FFF"/>
    <text x="258" y="288">Pareto 엘리트 지도</text>
  </g>
</svg>
